:SAMPLES-PER-SECOND 30
:FULLY-SPECIFIED
:DEGREES
63
root  20.6447 36.0463 -0.691785 1.18616 -57.0362 -6.49207
RightUpLeg  -26.5357 -17.5429 -3.36699
RightLeg  49.7809 -4.49691 -6.05153
RightFoot  -13.3968 -0.00248277 4.92783
RightToes  0.000482159 0.542163 -0.142577
Spine  35.1844 -1.49453 -1.25382
Spine1  1.779 0.0105263 -13.4222
HEad  -42.9697 -35.6736 8.14495
LeftShoulder1  6.99076 -12.3783 -37.8662
LeftArm  -18.1555 14.7288 -33.0276
LeftForeArm  -177.18 -76.307 -143.196
LeftHand  -0.25398 0.0180481 5.50724
RightShoulder  5.77294 10.2573 35.9685
RightArm  4.13787 2.56019 36.1844
RightForeArm  10.2803 52.7871 14.114
RightHand  -1.60037 3.41947 -21.168
LeftUpLeg  -45.1305 25.7089 -5.75874
LeftLeg  54.7837 -8.28001 -11.8844
LeftFoot  -0.404669 2.10569 -22.0103
LeftToes  1.06246e-005 4.65855e-005 -8.18502e-006
64
root  21.9804 35.734 -0.277179 0.832779 -57.6293 -4.99561
RightUpLeg  -29.4075 -18.289 -5.56553
RightLeg  49.6877 -3.30343 -4.53803
RightFoot  -11.5698 -0.065152 5.96582
RightToes  0.000482159 0.542163 -0.142577
Spine  36.0442 -0.737883 -3.13366
Spine1  1.18422 0.287054 -13.2
HEad  -45.3831 -36.2366 10.0665
LeftShoulder1  6.38677 -11.6793 -35.9768
LeftArm  -19.8433 14.6947 -32.1239
LeftForeArm  -167.218 -71.6632 -153.937
LeftHand  -0.25398 0.0180481 5.50724
RightShoulder  6.02618 10.6148 36.6826
RightArm  6.54897 0.993922 37.3293
RightForeArm  5.22347 44.452 10.6068
RightHand  -1.54584 3.36757 -20.6043
LeftUpLeg  -44.4155 22.6478 3.54416
LeftLeg  62.0423 -3.47648 -6.62921
LeftFoot  -1.56001 1.22472 -14.2142
LeftToes  1.06246e-005 4.65855e-005 -8.18502e-006
65
root  23.3205 35.4468 0.334367 1.34595 -58.3134 -5.00253
RightUpLeg  -31.293 -17.8061 -7.2726
RightLeg  48.7895 -2.61178 -3.5538
RightFoot  -10.025 -0.151167 7.06701
RightToes  0.000482159 0.542163 -0.142577
Spine  36.9072 -0.710394 -4.63757
Spine1  -0.300995 -0.247931 -12.817
HEad  -48.6129 -36.8751 12.1653
LeftShoulder1  5.83732 -11.0399 -34.0883
LeftArm  -21.9835 15.7048 -30.7444
LeftForeArm  -162.903 -67.0565 -159.878
LeftHand  -0.25398 0.0180481 5.50724
RightShoulder  6.25366 10.7623 37.7979
RightArm  9.32733 -1.92024 38.9321
RightForeArm  -0.318213 38.9247 9.04636
RightHand  -1.87973 4.86211 -21.3647
LeftUpLeg  -39.5674 19.0123 14.6997
LeftLeg  64.2604 -1.4804 -2.75073
LeftFoot  -3.88105 0.737796 -10.7703
LeftToes  1.06246e-005 4.65855e-005 -8.18502e-006
66
root  24.6621 35.2803 1.0238 1.28807 -59.0079 -4.9048
RightUpLeg  -32.3297 -16.9725 -9.20225
RightLeg  47.1773 -2.47257 -3.19285
RightFoot  -7.11465 -0.372293 8.69985
RightToes  0.000482159 0.542163 -0.142577
Spine  37.3084 -0.85583 -6.87598
Spine1  -1.25749 -0.993653 -12.8058
HEad  -51.8881 -36.6045 14.4541
LeftShoulder1  5.47752 -10.6447 -32.674
LeftArm  -23.9622 16.8733 -29.3074
LeftForeArm  -161.98 -63.4332 -162.99
LeftHand  -0.25398 0.0180481 5.50724
RightShoulder  6.49365 10.9238 38.9237
RightArm  10.7403 -5.69924 39.9637
RightForeArm  -3.40484 37.0498 8.66528
RightHand  -2.38885 6.70438 -23.0592
LeftUpLeg  -31.7292 15.2996 23.974
LeftLeg  60.3345 1.99627 4.14324
LeftFoot  -4.58616 0.28246 -4.77444
LeftToes  1.06246e-005 4.65855e-005 -8.18502e-006
67
root  25.992 35.0591 1.85754 0.345367 -59.8178 -3.59827
RightUpLeg  -33.226 -16.1944 -11.9874
RightLeg  45.3552 -2.67612 -3.21655
RightFoot  -4.16515 -0.687296 10.4949
RightToes  0.000482159 0.542163 -0.142577
Spine  36.4122 -0.899756 -9.93357
Spine1  -1.98887 -1.91346 -12.5768
HEad  -53.486 -35.3111 15.9395
LeftShoulder1  5.22871 -10.3966 -31.5711
LeftArm  -24.6593 17.7605 -28.4967
LeftForeArm  -161.7 -61.6894 -164.214
LeftHand  -0.25398 0.0180481 5.50724
RightShoulder  6.64764 11.0343 39.609
RightArm  11.0512 -9.53543 40.0582
RightForeArm  -2.88308 37.0585 8.64067
RightHand  -2.37694 6.59669 -23.09
LeftUpLeg  -22.5217 10.6531 29.4034
LeftLeg  52.0984 7.00539 10.0599
LeftFoot  -1.84754 0.261378 -2.49149
LeftToes  1.06246e-005 4.65855e-005 -8.18502e-006
68
root  27.4361 34.7084 2.89326 -0.574814 -60.0181 -1.33511
RightUpLeg  -34.7533 -14.5972 -15.888
RightLeg  43.3985 -2.40475 -2.74483
RightFoot  -2.62141 -0.950819 12.2037
RightToes  0.000482159 0.542163 -0.142577
Spine  35.104 -1.07022 -12.9839
Spine1  -3.87608 -3.20922 -11.3846
HEad  -53.9513 -33.9133 16.5123
LeftShoulder1  5.08712 -10.3122 -30.7742
LeftArm  -23.1316 17.4381 -28.8873
LeftForeArm  -161.283 -62.5522 -163.668
LeftHand  -0.25398 0.0180481 5.50724
RightShoulder  6.53067 10.9167 39.1872
RightArm  10.5684 -13.3343 39.1269
RightForeArm  -1.71763 37.9503 8.84872
RightHand  -1.79791 4.52176 -21.1756
LeftUpLeg  -15.283 4.86142 30.348
LeftLeg  43.885 9.28939 9.93963
LeftFoot  -3.35636 0.75773 -12.2042
LeftToes  1.06246e-005 4.65855e-005 -8.18502e-006
69
root  29.0918 34.2346 4.00612 -0.108063 -58.9939 -0.196716
RightUpLeg  -36.646 -11.2374 -20.1271
RightLeg  41.7207 -0.811571 -1.06896
RightFoot  -2.85837 -1.07243 14.1775
RightToes  0.000482159 0.542163 -0.142577
Spine  35.1148 -1.22361 -14.6548
Spine1  -6.95922 -4.42128 -9.07866
HEad  -56.1739 -33.0766 17.3981
LeftShoulder1  5.28002 -10.8589 -30.7127
LeftArm  -19.7412 14.0953 -30.3264
LeftForeArm  -163.425 -66.7391 -160.035
LeftHand  -0.25398 0.0180481 5.50724
RightShoulder  6.23571 10.7155 37.8169
RightArm  8.5192 -16.3925 37.1421
RightForeArm  -2.77798 39.6024 9.44004
RightHand  -1.53002 3.28793 -20.582
LeftUpLeg  -13.637 0.716397 28.9047
LeftLeg  40.5572 6.50088 6.25283
LeftFoot  -12.4213 -0.174911 -26.2915
LeftToes  1.06246e-005 4.65855e-005 -8.18502e-006
70
root  30.7609 33.7851 4.91494 0.626022 -57.0512 -0.372574
RightUpLeg  -37.6655 -6.89274 -23.4293
RightLeg  41.5781 0.964091 0.643037
RightFoot  -4.82144 -0.922682 15.4963
RightToes  0.000482159 0.542163 -0.142577
Spine  36.6893 -0.710918 -15.239
Spine1  -9.4202 -4.72051 -7.04684
HEad  -61.1724 -32.7063 19.2565
LeftShoulder1  6.00185 -12.3571 -31.7854
LeftArm  -15.8068 7.10699 -31.5172
LeftForeArm  -173.534 -73.9602 -148.785
LeftHand  -0.25398 0.0180481 5.50724
RightShoulder  6.12648 10.7514 36.9686
RightArm  4.50215 -17.1943 34.7649
RightForeArm  -5.84545 40.5508 9.93719
RightHand  -2.07645 4.82643 -23.5055
LeftUpLeg  -17.3058 0.758363 27.3187
LeftLeg  43.6054 1.66678 2.0764
LeftFoot  -20.9841 -2.44421 -30.5174
LeftToes  1.06246e-005 4.65855e-005 -8.18502e-006
71
root  32.2221 33.5284 5.56475 -0.138977 -55.3754 -0.368958
RightUpLeg  -37.808 -3.81929 -24.2215
RightLeg  45.0119 0.989938 0.728318
RightFoot  -7.21951 -0.588632 14.8419
RightToes  0.000482159 0.542163 -0.142577
Spine  38.4813 0.387691 -15.602
Spine1  -10.1104 -4.14927 -6.43417
HEad  -66.1092 -32.3564 21.0646
LeftShoulder1  7.07719 -14.222 -33.8692
LeftArm  -12.4249 -0.717254 -31.2923
LeftForeArm  155.578 -80.6723 -116.25
LeftHand  -0.25398 0.0180481 5.50724
RightShoulder  6.33475 11.0628 37.4592
RightArm  0.275438 -15.1569 33.533
RightForeArm  -8.82103 38.6819 9.50354
RightHand  -2.97383 7.31528 -27.147
LeftUpLeg  -21.918 2.95608 25.3759
LeftLeg  49.4076 -0.206075 0.235885
LeftFoot  -23.5786 -2.72161 -26.1565
LeftToes  1.06246e-005 4.65855e-005 -8.18502e-006
72
root  33.4247 33.4343 6.12188 -1.98984 -54.7935 0.356415
RightUpLeg  -38.1039 -3.42742 -22.0776
RightLeg  52.9722 -0.179995 -0.674266
RightFoot  -9.24296 -0.312068 13.5889
RightToes  0.000482159 0.542163 -0.142577
Spine  39.1862 1.19359 -15.6939
Spine1  -10.0416 -3.49104 -7.00743
HEad  -68.1773 -31.958 21.4491
LeftShoulder1  8.03104 -15.482 -36.2094
LeftArm  -10.04 -5.02295 -29.9661
LeftForeArm  108.94 -81.1177 -67.3709
LeftHand  -0.25398 0.0180481 5.50724
RightShoulder  6.63982 11.3985 38.4898
RightArm  -0.788182 -11.6467 34.2789
RightForeArm  -10.4274 34.9362 8.4255
RightHand  -3.21241 7.90232 -27.9371
LeftUpLeg  -24.312 4.41607 23.0745
LeftLeg  53.5487 -0.389773 -0.07686
LeftFoot  -23.0108 -2.19903 -22.6055
LeftToes  1.06246e-005 4.65855e-005 -8.18502e-006
